<?xml version="1.0" standalone="no"?>
<!DOCTYPE svg PUBLIC "-//W3C//DTD SVG 20010904//EN"
 "http://www.w3.org/TR/2001/REC-SVG-20010904/DTD/svg10.dtd">
<svg version="1.0" xmlns="http://www.w3.org/2000/svg"
 width="700.000000pt" height="700.000000pt" viewBox="0 0 700.000000 700.000000"
 preserveAspectRatio="xMidYMid meet">
<metadata>
Created by potrace 1.11, written by Peter Selinger 2001-2013
</metadata>
<g transform="translate(0.000000,700.000000) scale(0.100000,-0.100000)"
fill="#000000" stroke="none">
<path d="M4959 6673 c-2 -102 1 -244 5 -251 2 -4 128 -7 280 -6 152 0 275 -1
273 -3 -4 -5 -1944 -1946 -1987 -1988 l-40 -39 -578 577 -578 578 -822 -822
c-453 -452 -821 -826 -820 -830 5 -14 291 -299 301 -299 4 0 308 300 674 666
l666 666 579 -579 578 -578 1170 1170 c818 818 1170 1164 1171 1150 0 -11 1
-138 2 -282 l1 -263 142 1 c125 0 142 2 146 17 2 9 4 271 3 582 l0 565 -583 3
-582 2 -1 -37z"/>
<path d="M4959 4360 c0 -20 0 -4030 0 -4052 1 -17 36 -18 584 -18 l582 0 0
2042 0 2043 -582 0 c-514 0 -583 -2 -584 -15z"/>
<path d="M877 3203 c-2 -5 -3 -660 -3 -1458 l1 -1450 583 -3 582 -2 0 27 c1
39 1 2754 1 2831 l-1 62 -579 0 c-319 0 -582 -3 -584 -7z"/>
<path d="M2916 1615 c1 -715 2 -1306 3 -1312 1 -10 124 -13 580 -13 454 0 580
3 583 13 3 10 2 2570 -1 2602 -1 8 -186 11 -583 11 l-583 0 1 -1301z"/>
</g>
</svg>
